<svg id="Layer_1" enable-background="new 0 0 512 512" height="512" viewBox="0 0 512 512" width="512" xmlns="http://www.w3.org/2000/svg"><g><path d="m504.5 91.64v323.63c0 7.26-5.89 13.15-13.16 13.15h-470.68c-7.27 0-13.16-5.89-13.16-13.15v-323.63c0-7.26 5.89-13.15 13.16-13.15h470.68c7.27 0 13.16 5.89 13.16 13.15z" fill="#e6fdff"/><path d="m504.5 91.64v323.63c0 7.26-5.89 13.15-13.16 13.15h-470.68c-7.27 0-13.16-5.89-13.16-13.15v-16.85h438.26c14.7 0 26.62-11.91 26.62-26.61v-293.32h18.96c7.27 0 13.16 5.89 13.16 13.15z" fill="#c1eaf4"/><g fill="#466175"><path d="m504.5 91.64v46.84h-497v-46.84c0-7.26 5.89-13.15 13.16-13.15h470.68c7.27 0 13.16 5.89 13.16 13.15z"/><path d="m504.5 368.43v46.84c0 7.26-5.89 13.15-13.16 13.15h-470.68c-7.27 0-13.16-5.89-13.16-13.15v-46.84z"/><path d="m376 100.57v163.18l-120 48.91-120-48.91v-163.18z"/></g><path d="m376 100.57v163.18l-120 48.91-120-48.91v-28.83l120 47.74 85.64-34.75c5.01-2.03 8.28-6.89 8.28-12.28v-94.73l-88.26 35.96c-3.63 1.48-7.69 1.48-11.32 0l-114.34-46.59v-29.7z" fill="#2d4859"/><path d="m376 205.27v58.48l-120 48.91-120-48.91v-58.48l120 48.9 93.92-38.27z" fill="#4fe8bc"/><path d="m376 205.27v58.48l-120 48.91-120-48.91v-28.83l120 47.74 85.64-34.75c5.01-2.03 8.28-6.89 8.28-12.28v-19.73z" fill="#17c6a5"/><path d="m430.199 78.486-174.199-70.986-174.199 70.986 174.199 70.987z" fill="#4fe8bc"/><path d="m320.88 489.497h-129.76l10.18-31.29 9.7-29.791h90z" fill="#aec9d6"/><path d="m320.88 489.497h-129.76l10.18-31.29h63.57c11.43 0 19.65-10.97 16.43-21.93l-2.3-7.86h22z" fill="#8fb2bc"/><path d="m361 493.047c0 6.32-5.13 11.45-11.46 11.45h-187.08c-3.16 0-6.03-1.28-8.1-3.36-2.08-2.07-3.36-4.93-3.36-8.09 0-1.26.13-2.48.37-3.67 1.69-8.48 9.19-14.87 18.17-14.87h172.92c5.12 0 9.76 2.07 13.11 5.43s5.43 7.989 5.43 13.11z" fill="#466175"/><path d="m355.57 479.936c3.35 3.36 5.43 7.99 5.43 13.11 0 6.32-5.13 11.45-11.46 11.45h-187.08c-3.16 0-6.03-1.28-8.1-3.36-2.08-2.07-3.36-4.93-3.36-8.09 0-1.26.13-2.48.37-3.67h175.67c6.33 0 11.46-5.13 11.46-11.45 0-1.17-.11-2.31-.32-3.42h4.28c5.12.001 9.76 2.071 13.11 5.43z" fill="#2d4859"/><path d="m504.5 91.64v46.84h-32.12v-59.99h18.96c7.27 0 13.16 5.89 13.16 13.15z" fill="#2d4859"/><path d="m472.38 368.43h32.12v46.84c0 7.26-5.89 13.15-13.16 13.15h-470.68c-7.27 0-13.16-5.89-13.16-13.15v-16.85h438.26c14.7 0 26.62-11.91 26.62-26.61z" fill="#2d4859"/></g><g><path d="m491.343 70.987h-31.654c-4.142 0-7.5 3.358-7.5 7.5s3.358 7.5 7.5 7.5h31.654c3.119 0 5.657 2.537 5.657 5.654v39.334h-91c-4.142 0-7.5 3.358-7.5 7.5s3.358 7.5 7.5 7.5h91v214.957h-56.75c-4.142 0-7.5 3.358-7.5 7.5s3.358 7.5 7.5 7.5h56.75v39.334c0 3.118-2.538 5.654-5.657 5.654h-470.686c-3.119 0-5.657-2.537-5.657-5.654v-39.334h390.743c4.142 0 7.5-3.358 7.5-7.5s-3.358-7.5-7.5-7.5h-390.743v-214.957h91c4.142 0 7.5-3.358 7.5-7.5s-3.358-7.5-7.5-7.5h-91v-39.334c0-3.118 2.538-5.654 5.657-5.654h31.387c4.142 0 7.5-3.358 7.5-7.5s-3.358-7.5-7.5-7.5h-31.387c-11.39 0-20.657 9.265-20.657 20.654v323.625c0 11.389 9.267 20.654 20.657 20.654h180.015l-10.118 31.086h-21.009c-14.361 0-26.044 11.682-26.044 26.041 0 10.451 8.503 18.953 18.956 18.953h187.089c10.452 0 18.956-8.502 18.956-18.953 0-14.359-11.684-26.041-26.044-26.041h-21.009l-10.118-31.086h180.015c11.39 0 20.657-9.266 20.657-20.654v-323.625c-.003-11.389-9.27-20.654-20.66-20.654zm-185.671 396.019h-48.757c-4.142 0-7.5 3.358-7.5 7.5s3.358 7.5 7.5 7.5h85.541c6.09 0 11.044 4.953 11.044 11.041 0 2.18-1.774 3.953-3.956 3.953h-187.088c-2.181 0-3.956-1.773-3.956-3.953 0-6.088 4.955-11.041 11.044-11.041h52.76c4.142 0 7.5-3.358 7.5-7.5s-3.358-7.5-7.5-7.5h-15.976l10.118-31.086h79.107z"/><path d="m78.971 85.432 49.529 20.183v158.14c0 3.049 1.846 5.795 4.67 6.945l33.03 13.46v31.737c0 4.142 3.358 7.5 7.5 7.5s7.5-3.358 7.5-7.5v-25.625l71.97 29.328c.907.37 1.869.555 2.83.555s1.923-.185 2.83-.555l120-48.9c2.824-1.15 4.67-3.896 4.67-6.945v-158.14l49.529-20.183c2.824-1.15 4.67-3.896 4.67-6.945s-1.846-5.795-4.67-6.945l-174.199-70.987c-1.814-.739-3.846-.739-5.66 0l-174.199 70.986c-2.824 1.15-4.67 3.896-4.67 6.945s1.846 5.796 4.67 6.946zm87.229 35.546v88.503l-22.7-9.25v-88.503zm-22.7 137.734v-42.285l22.7 9.25v42.285zm112.5 45.845-74.8-30.481v-42.286l71.97 29.328c.907.37 1.869.555 2.83.555s1.923-.185 2.83-.555l109.67-44.69v42.285zm0-288.958 154.325 62.888-80.033 32.613c-3.836 1.563-5.679 5.94-4.115 9.775 1.563 3.836 5.941 5.678 9.775 4.115l32.547-13.263v88.503l-112.499 45.844-74.8-30.481v-88.503l71.97 29.328c.907.37 1.869.555 2.83.555s1.923-.185 2.83-.555l44.598-18.174c3.835-1.563 5.678-5.94 4.115-9.775-1.563-3.837-5.941-5.679-9.776-4.115l-41.767 17.02-62.426-25.439 65.256-26.592c3.836-1.563 5.679-5.94 4.115-9.775-1.563-3.836-5.943-5.68-9.775-4.115l-79.47 32.384-72.025-29.35z"/></g></svg>